<svg width="51" height="56" viewBox="0 0 51 56" fill="none" xmlns="http://www.w3.org/2000/svg">
<path d="M0.000343346 18.968C0.625622 10.144 6.42928 2.51023 14.3419 0.53409C27.7584 -2.81704 39.6329 10.1183 36.705 24.8764C36.251 27.1644 35.3957 29.1722 34.4102 31.2223L36.2061 33.1871L37.4013 31.8785L40.9353 35.7598L40.3413 36.416L50.0418 47.2011C53.411 52.7987 47.1795 58.921 42.4297 54.4675L33.2668 44.3952C33.0141 44.2523 32.8225 44.7784 32.6065 44.8863L29.1779 41.2327C29.0808 41.1388 29.0681 41.0848 29.1282 40.9566C29.2525 40.6923 30.2118 39.9595 30.1727 39.7129L28.4163 37.7948C28.3034 37.7635 26.7743 38.7387 26.4622 38.8968C14.664 44.8757 1.15716 36.2452 0.0923668 22.0951L0 18.9676L0.000343346 18.968ZM35.4465 20.4697C35.4465 10.2643 27.9137 1.99092 18.6217 1.99092C9.32973 1.99092 1.79686 10.2643 1.79686 20.4697C1.79686 30.6751 9.32973 38.9484 18.6217 38.9484C27.9137 38.9484 35.4465 30.6751 35.4465 20.4697ZM33.4172 32.7538C32.3689 34.1921 31.1884 35.4864 29.8856 36.6468C29.8626 36.7649 31.2358 38.2873 31.3456 38.319C31.4603 38.3522 31.5479 38.3186 31.6289 38.2277L34.9538 34.5417L33.4172 32.7538ZM37.3478 34.4335L31.3649 41.0109L32.5704 42.3335L38.5533 35.7561L37.3478 34.4335ZM39.1082 37.7918L34.3652 42.9803L43.8344 53.3633C46.8969 55.8112 50.7145 52.0878 48.7879 48.4697L39.2967 37.8868L39.1082 37.7918Z" fill="#114FAA"/>
<path d="M33.7821 20.4592C33.7821 29.6509 26.9975 37.1025 18.6285 37.1025C10.2595 37.1025 3.47485 29.6509 3.47485 20.4592C3.47485 11.2675 10.2592 3.81592 18.6285 3.81592C26.9978 3.81592 33.7821 11.2675 33.7821 20.4592ZM32.0976 20.4592C32.0976 12.2892 26.0673 5.66609 18.6285 5.66609C11.1897 5.66609 5.15909 12.2892 5.15909 20.4592C5.15909 28.6292 11.1894 35.2523 18.6282 35.2523C26.0669 35.2523 32.0976 28.6292 32.0976 20.4592Z" fill="#114FAA"/>
<path d="M27.0924 10.3258V26.9536H28.686V28.8132H8.56616V26.9536H10.11L10.2593 26.7896V17.6552H15.2396V26.9536H16.1361V13.9356H21.1164V26.7896C21.3286 27.0754 21.7125 26.9231 22.0129 26.9536V10.3258H27.0924ZM25.3992 12.1858H23.7061V26.954H25.3992V12.1858ZM19.4229 15.7956H17.8293V26.954H19.4229V15.7956ZM11.8481 19.5152V26.954H13.5464V19.5152H11.8481Z" fill="#114FAA"/>
</svg>
