<svg width="47" height="47" viewBox="0 0 47 47" fill="none" xmlns="http://www.w3.org/2000/svg">
<path d="M40.843 23.5C40.843 33.0792 33.0792 40.843 23.5 40.843C13.9208 40.843 6.15698 33.0792 6.15698 23.5C6.15698 13.9208 13.9208 6.157 23.5 6.157C33.0792 6.157 40.843 13.9208 40.843 23.5ZM39.3654 23.5029C39.3654 14.7404 32.2625 7.6375 23.5 7.6375C14.7374 7.6375 7.63455 14.7404 7.63455 23.5029C7.63455 32.2655 14.7374 39.3684 23.5 39.3684C32.2625 39.3684 39.3654 32.2655 39.3654 23.5029Z" fill="white"/>
<path d="M26.9633 25.7501C29.892 26.7166 32.2067 29.3339 33.0233 32.2919C33.0792 32.4887 33.2525 33.0674 33.2437 33.2261C33.2319 33.4346 32.1627 34.1572 31.9982 34.4069C31.8454 34.4363 31.9218 34.3394 31.9012 34.2483C31.3695 31.8337 30.9524 30.2562 28.9813 28.5701C23.6968 24.0522 15.5687 27.5684 15.0958 34.404L13.7798 33.3112C14.2615 29.8626 16.826 26.8458 20.0983 25.6796L18.9733 24.8483C13.7445 20.1659 18.0068 11.5414 24.9746 13.0102C30.5088 14.1764 32.2185 21.3233 27.8886 24.9746C27.6477 25.1773 27.2423 25.3741 27.0573 25.5533C26.9956 25.615 26.9368 25.6385 26.9603 25.7442L26.9633 25.7501ZM28.8727 19.7077C28.8727 16.7408 26.4668 14.3379 23.5029 14.3379C20.539 14.3379 18.1332 16.7437 18.1332 19.7077C18.1332 22.6716 20.539 25.0774 23.5029 25.0774C26.4668 25.0774 28.8727 22.6716 28.8727 19.7077Z" fill="white"/>
</svg>
