<svg width="55" height="55" viewBox="0 0 55 55" fill="none" xmlns="http://www.w3.org/2000/svg">
<path d="M2.91148 10.7181C3.44773 4.7575 9.09211 6.67219 12.478 8.86187C17.9059 12.3716 23.6155 20.0131 26.7677 25.6334C26.9912 26.0287 27.2009 26.565 27.4346 26.9259C27.469 26.9775 27.4277 27.0222 27.5515 26.9947C29.174 23.7497 31.2571 20.6559 33.4915 17.7994C36.5852 13.8394 41.5627 8.27062 46.5677 6.97125C50.8165 5.87125 52.2121 8.4425 52.0918 12.2856C52.0265 14.4031 51.7996 16.6856 51.614 18.8031C51.1259 24.3444 51.2427 29.7894 45.344 32.3056C43.0099 33.2991 40.5005 33.4263 37.9946 33.2509L40.1018 33.8181C43.7284 34.9491 47.7502 37.4859 46.4749 41.9169C45.5193 45.2375 40.5624 49.7991 37.039 49.9984C34.3955 50.1497 32.5496 48.6991 31.0612 46.6744C29.418 44.4434 28.4418 41.7347 27.5515 39.1291C27.4552 39.0397 27.3762 39.3284 27.3521 39.38C26.118 42.3431 25.4649 45.0553 23.234 47.5578C19.109 52.1778 14.2724 49.4794 10.8315 45.7016C6.12898 40.5384 8.29117 36.08 14.3824 33.9831L17.0052 33.2441C14.1177 33.4572 11.1477 33.2234 8.59711 31.7694C4.27961 29.3081 4.04586 25.5612 3.59898 21.0787C3.34805 18.5556 3.17961 16.0291 3.01461 13.4991C3.00086 13.2687 2.96305 12.9525 2.90805 12.7291C2.9493 12.0794 2.84961 11.3575 2.90805 10.7147L2.91148 10.7181Z" fill="white"/>
</svg>
