<svg width="76" height="62" viewBox="0 0 76 62" fill="none" xmlns="http://www.w3.org/2000/svg">
<path d="M14.1503 31.4546C14.0904 31.2222 14.1132 30.9374 14.1157 30.6931C14.1164 30.6359 14.0941 30.5427 14.1503 30.5076C14.15 30.8228 14.15 31.1394 14.1503 31.4546Z" fill="white"/>
<path d="M40.0754 6.3247C39.8231 6.32352 39.5354 6.35396 39.2949 6.29088C39.5458 6.28902 39.836 6.26392 40.0754 6.3247Z" fill="white"/>
<path d="M38.6162 6.29099C38.3709 6.29542 38.0973 6.32447 37.8357 6.32481C38.0768 6.24746 38.3641 6.31152 38.6162 6.29099Z" fill="white"/>
<path d="M63.7271 32.0973C63.7275 31.9694 63.6984 31.7922 63.761 31.6914C63.7605 31.8193 63.7896 31.9966 63.7271 32.0973Z" fill="white"/>
<path d="M63.761 30.2709C63.6985 30.1701 63.7275 29.9928 63.7271 29.865C63.7896 29.9657 63.7605 30.143 63.761 30.2709Z" fill="white"/>
<path d="M14.218 32.8413C14.1565 32.7745 14.1848 32.6322 14.1841 32.5369C14.2454 32.6036 14.2175 32.746 14.218 32.8413Z" fill="white"/>
<path d="M14.1841 32.3339C14.1227 32.2672 14.1508 32.1249 14.1502 32.0295C14.2116 32.0963 14.1835 32.2386 14.1841 32.3339Z" fill="white"/>
<path d="M14.1502 29.9326C14.1508 29.8373 14.1227 29.6949 14.1841 29.6282C14.1834 29.7236 14.2116 29.8658 14.1502 29.9326Z" fill="white"/>
<path d="M40.6523 6.35855C40.5779 6.35773 40.4611 6.38357 40.4148 6.32472C40.4886 6.32428 40.6067 6.30064 40.6523 6.35855Z" fill="white"/>
<path d="M63.693 32.6721C63.6938 32.5979 63.6678 32.4814 63.7269 32.4353C63.7262 32.5094 63.7519 32.626 63.693 32.6721Z" fill="white"/>
<path d="M37.4963 6.32479C37.4501 6.38357 37.3331 6.3579 37.2588 6.35861C37.305 6.29976 37.4219 6.3256 37.4963 6.32479Z" fill="white"/>
<path d="M63.6929 29.0532C63.6336 29.0069 63.6601 28.8907 63.659 28.8164C63.7181 28.8625 63.692 28.979 63.6929 29.0532Z" fill="white"/>
<path d="M63.7269 29.5268C63.6679 29.4807 63.6937 29.3641 63.693 29.29C63.752 29.3361 63.7261 29.4527 63.7269 29.5268Z" fill="white"/>
<path d="M14.1842 29.3238C14.185 29.26 14.1612 29.1576 14.2181 29.1208C14.2171 29.1847 14.2413 29.287 14.1842 29.3238Z" fill="white"/>
<path d="M14.2181 28.918C14.2189 28.8542 14.1951 28.7519 14.2521 28.7151C14.2511 28.7789 14.2752 28.8812 14.2181 28.918Z" fill="white"/>
<path d="M63.659 33.1456C63.66 33.0817 63.6359 32.9795 63.693 32.9426C63.6921 33.0064 63.716 33.1088 63.659 33.1456Z" fill="white"/>
<path d="M14.2859 33.6192C14.2273 33.5818 14.255 33.4804 14.252 33.4163C14.3093 33.4532 14.2846 33.5552 14.2859 33.6192Z" fill="white"/>
<path d="M14.2521 28.546C14.2528 28.4822 14.2291 28.3798 14.286 28.343C14.285 28.4069 14.3092 28.5091 14.2521 28.546Z" fill="white"/>
<path d="M41.0596 6.39246C41.0052 6.39047 40.9189 6.41347 40.8899 6.35864C40.9649 6.36236 41.0429 6.39131 41.0596 6.39246Z" fill="white"/>
<path d="M39.2948 6.2908L40.0753 6.32463C40.1895 6.32517 40.301 6.3253 40.4146 6.32463L40.6522 6.35845C40.731 6.35933 40.8111 6.35456 40.8897 6.35845L41.0594 6.39227C41.1266 6.39687 41.1959 6.38679 41.263 6.39227L41.4326 6.42609C51.261 7.34582 59.479 14.0782 62.5739 23.3533C63.0863 24.8886 63.6342 27.2092 63.659 28.8163L63.693 29.0531C63.6939 29.1319 63.6921 29.211 63.693 29.2898L63.7269 29.5266C63.7281 29.6391 63.7266 29.7524 63.7269 29.8648L63.7608 30.2707C63.7627 30.7436 63.7626 31.2183 63.7608 31.6912L63.7269 32.0971C63.7265 32.2096 63.728 32.3228 63.7269 32.4353L63.693 32.6721C63.6919 32.7621 63.6942 32.8526 63.693 32.9426L63.659 33.1456C63.6578 33.224 63.6637 33.3042 63.659 33.3823L63.6251 33.5514C62.793 42.7548 56.0725 51.4663 47.2261 54.2922C45.7825 54.7533 44.3424 55.2241 42.8239 55.4007V38.1512L48.5926 38.1174L49.6785 30.9809H42.8239C42.8356 29.3357 42.8083 27.6881 42.8239 26.0429L42.8578 25.8062C42.8919 23.8696 44.4217 22.6309 46.2851 22.5592L46.6923 22.5254C47.7889 22.521 48.8873 22.5287 49.9839 22.5254V16.4374C49.3311 16.3289 48.6737 16.2407 48.0157 16.1669C47.9627 16.1433 47.9062 16.1321 47.8461 16.133C47.6768 16.1149 47.4793 16.1153 47.3031 16.0992C47.25 16.0762 47.1934 16.0649 47.1335 16.0654C47.0665 16.0595 46.9968 16.071 46.9299 16.0654C46.8764 16.0425 46.8199 16.0313 46.7602 16.0316C46.682 16.0258 46.6012 16.034 46.5227 16.0316L46.2851 15.9978C46.1948 15.9967 46.104 15.9983 46.0136 15.9978L45.7082 15.9639C45.5616 15.9629 45.4138 15.9641 45.2671 15.9639H43.808C43.7068 15.9673 43.6035 15.9579 43.5026 15.9639L43.3329 15.9978C38.5872 16.3931 35.6267 19.4184 35.155 24.1151C35.1316 24.168 35.1203 24.2243 35.121 24.2842C35.1156 24.351 35.1247 24.42 35.121 24.4871L35.0871 24.7915C35.0861 24.9376 35.0873 25.085 35.0871 25.2312C35.0905 27.1488 35.0792 29.0654 35.0532 30.9809L28.7753 30.9808L28.7755 38.1174L35.0532 38.1512L35.0705 55.3272C35.0476 55.3754 34.9966 55.3885 34.9174 55.3667C33.1659 55.1518 30.8113 54.4749 29.1937 53.783C21.6305 50.5481 16.0081 43.5867 14.5341 35.4856C14.429 34.9078 14.2978 34.2001 14.2859 33.6191L14.252 33.4161C14.2493 33.3601 14.256 33.3029 14.252 33.247L14.218 33.0779C14.2144 32.9996 14.2185 32.9197 14.218 32.8412L14.1841 32.5368C14.1836 32.4692 14.1845 32.4014 14.1841 32.3338L14.1502 32.0294C14.1489 31.8382 14.1503 31.6457 14.1502 31.4545C14.1205 31.1392 14.1232 30.8229 14.1502 30.5074C14.1503 30.3162 14.149 30.1237 14.1502 29.9325L14.1841 29.6281C14.1848 29.5268 14.1828 29.4249 14.1841 29.3237L14.218 29.1207C14.2191 29.0532 14.2172 28.9854 14.218 28.9178L14.252 28.7149C14.2528 28.6585 14.2513 28.6021 14.252 28.5458L14.2859 28.3428C14.2943 27.8206 14.4097 27.1989 14.5002 26.6793C16.4034 15.7476 25.7044 7.25548 36.8177 6.39227L36.9874 6.35845C37.0765 6.35239 37.1692 6.35933 37.2588 6.35845L37.4964 6.32463C37.6092 6.32337 37.7229 6.32476 37.8357 6.32463C38.0951 6.30027 38.3552 6.28901 38.6162 6.2908C38.8418 6.28671 39.0692 6.29249 39.2948 6.2908Z" fill="white"/>
<path d="M45.2672 15.9641C44.783 15.9635 44.2917 15.9479 43.8081 15.9641H45.2672Z" fill="white"/>
<path d="M46.0137 15.9979C45.918 15.9974 45.7752 16.0253 45.7083 15.9641C45.8039 15.9648 45.9466 15.9367 46.0137 15.9979Z" fill="white"/>
<path d="M46.5227 16.0317C46.4478 16.0294 46.332 16.0578 46.2852 15.9979C46.3596 15.9987 46.4764 15.9728 46.5227 16.0317Z" fill="white"/>
<path d="M43.5027 15.9641C43.4919 15.9647 43.3981 15.9925 43.333 15.9979C43.362 15.9431 43.4483 15.9661 43.5027 15.9641Z" fill="white"/>
<path d="M48.0159 16.1671C47.949 16.1596 47.8728 16.1361 47.8462 16.1333C47.9006 16.1352 47.9869 16.1122 48.0159 16.1671Z" fill="white"/>
<path d="M47.3032 16.0994C47.2345 16.0932 47.1547 16.0675 47.1335 16.0656C47.1879 16.0676 47.2742 16.0446 47.3032 16.0994Z" fill="white"/>
<path d="M46.9299 16.0655C46.8619 16.0598 46.7767 16.0329 46.7603 16.0317C46.8146 16.0337 46.9009 16.0107 46.9299 16.0655Z" fill="white"/>
<path d="M35.0532 38.1514L35.0877 55.3812C35.0464 55.4518 34.9265 55.3679 34.9175 55.3668L35.0535 55.3171L35.0532 38.1514Z" fill="white"/>
<path d="M35.0532 30.981L35.0872 25.2312C35.0848 27.1197 35.0876 29.0093 35.0886 30.8982L35.0532 30.981Z" fill="white"/>
<path d="M46.6924 22.5256C46.5895 22.5914 46.4154 22.5544 46.2852 22.5594C46.3862 22.4971 46.5641 22.5261 46.6924 22.5256Z" fill="white"/>
<path d="M35.0872 24.7917C35.0878 24.6964 35.0597 24.554 35.1211 24.4873C35.1158 24.5843 35.1521 24.7232 35.0872 24.7917Z" fill="white"/>
<path d="M42.8241 26.0432C42.8248 25.969 42.7991 25.8524 42.858 25.8064C42.8567 25.8807 42.8835 25.9968 42.8241 26.0432Z" fill="white"/>
<path d="M35.1211 24.2843C35.1231 24.2302 35.1 24.1441 35.155 24.1152C35.1485 24.18 35.1224 24.2669 35.1211 24.2843Z" fill="white"/>
<path d="M41.4326 6.42616C41.3782 6.42416 41.2919 6.44716 41.2629 6.39233C41.3351 6.39822 41.4087 6.42392 41.4326 6.42616Z" fill="white"/>
<path d="M14.252 33.2472C14.2507 33.2293 14.2216 33.1541 14.218 33.0781C14.273 33.107 14.2499 33.1931 14.252 33.2472Z" fill="white"/>
<path d="M63.6252 33.5514C63.6272 33.4973 63.6041 33.4112 63.6591 33.3823C63.6546 33.4587 63.6273 33.5277 63.6252 33.5514Z" fill="white"/>
<path d="M36.9875 6.35864C36.9586 6.41347 36.8722 6.39047 36.8179 6.39246C36.8369 6.39098 36.915 6.36358 36.9875 6.35864Z" fill="white"/>
</svg>
