<svg width="92" height="60" viewBox="0 0 92 60" fill="none" xmlns="http://www.w3.org/2000/svg">
<path d="M40.5836 32.591C34.2586 32.591 29.1123 27.3916 29.1123 21.0012C29.1123 14.6108 34.2586 9.41712 40.5836 9.41712C46.9086 9.41712 52.0491 14.6166 52.0491 21.0012C52.0491 27.3857 46.9086 32.591 40.5836 32.591ZM40.5836 10.2769C34.7301 10.2769 29.9691 15.0871 29.9691 21.0012C29.9691 26.9152 34.7301 31.7254 40.5836 31.7254C46.4371 31.7254 51.1981 26.9152 51.1981 21.0012C51.1981 15.0871 46.4371 10.2769 40.5836 10.2769Z" stroke="white" stroke-width="0.08" stroke-miterlimit="10"/>
<path d="M41.1411 28.5767H40.0314C39.8761 28.5767 39.7439 28.4489 39.7439 28.2862V14.1809C39.7439 14.024 39.8704 13.8904 40.0314 13.8904H41.1411C41.2964 13.8904 41.4286 14.0182 41.4286 14.1809V28.2862C41.4229 28.4431 41.2964 28.5767 41.1411 28.5767Z" fill="white"/>
<path d="M33.3154 21.4775V20.3621C33.3154 20.1995 33.4477 20.0717 33.6029 20.0717H47.5582C47.7192 20.0717 47.8457 20.2053 47.8457 20.3621V21.4775C47.8457 21.6402 47.7134 21.768 47.5582 21.768H33.6087C33.4477 21.7738 33.3154 21.6402 33.3154 21.4775Z" fill="white"/>
<path d="M47.012 37.4477L44.4993 31.9636L45.77 31.3594L48.277 36.8493L47.012 37.4477Z" fill="white"/>
<path d="M55.9246 55.2595L55.1771 55.5442C54.9413 55.6313 54.5676 55.2885 54.3491 54.7773L46.9948 37.773C46.7706 37.2618 46.7821 36.7738 47.0236 36.6867L47.7711 36.402C48.0068 36.3149 48.3806 36.6576 48.5991 37.1689L55.9476 54.1731C56.1718 54.6844 56.1603 55.1723 55.9246 55.2595Z" fill="white" stroke="white" stroke-miterlimit="10"/>
<path d="M55.0447 56.3807C54.947 56.3226 54.8435 56.2471 54.74 56.1483C54.4295 55.8579 54.1362 55.428 53.9235 54.9342L46.5692 37.9357C46.3565 37.4361 46.2415 36.9365 46.253 36.524C46.2645 36.1174 46.3967 35.8443 46.621 35.7572L47.3685 35.4725C47.84 35.2924 48.5817 35.9837 49.0245 37.0062L56.373 54.0046C56.8157 55.0271 56.7927 56.0031 56.3212 56.1832L55.5737 56.462C55.4242 56.526 55.2402 56.4969 55.0447 56.3807ZM48.1735 37.3315L47.426 37.6104L54.7745 54.6146L55.5277 54.3358V54.33L48.1735 37.3315Z" fill="white" stroke="white" stroke-miterlimit="10"/>
<path d="M9.87844 47.8757C8.63069 35.7862 8.63069 22.8428 9.87844 10.7591C12.3797 9.68435 13.6332 9.14407 16.1344 8.06933C15.4559 15.3369 15.2604 18.9795 15.1627 26.2703C18.1929 26.0786 19.7109 25.9857 22.7412 25.794C22.8562 17.3644 23.0804 13.1468 23.8624 4.74051C26.3637 3.66576 28.0369 3.13129 30.5382 2.05655C28.0024 20.2808 28.8649 38.1971 30.1184 56.584C27.6172 55.5093 26.3637 54.969 23.8567 53.8943C23.0402 45.1627 22.8102 40.7765 22.7239 32.0159C19.6937 31.8706 18.1757 31.7951 15.1454 31.6499C15.2202 39.2254 15.4214 43.019 16.1229 50.5713C13.6389 49.4907 12.3854 48.9504 9.87844 47.8757Z" fill="white"/>
<path d="M83.0242 10.2537C82.0985 24.3939 79.442 38.0693 76.6245 51.9249C74.3072 52.4651 73.1457 52.7324 70.8285 53.2668C70.012 41.8338 69.299 35.792 67.1025 23.1855C67.0565 23.1797 67.0335 23.1797 66.9817 23.1797C65.4752 35.5422 64.3827 42.0256 61.3525 55.4686C59.0352 56.0089 57.8737 56.2761 55.5565 56.8106C54.9412 38.2378 52.2905 20.1065 49.1567 1.82998C51.7615 2.43416 53.0667 2.75368 55.6772 3.39853C58.1095 17.1437 58.9202 24.2893 59.823 37.2909C59.869 37.285 59.8977 37.285 59.9437 37.285C62.169 24.1034 62.8935 17.4051 63.7042 5.43183C65.5845 5.91402 66.5275 6.15802 68.4135 6.6402C71.5127 19.328 72.657 25.579 74.3302 37.0643C74.3762 37.0585 74.405 37.0585 74.451 37.0585C75.9345 25.3699 76.3255 19.572 76.498 8.69093C79.1142 9.32997 80.4195 9.64949 83.0242 10.2537Z" fill="white"/>
</svg>
