<svg width="86" height="87" viewBox="0 0 86 87" fill="none" xmlns="http://www.w3.org/2000/svg">
<path d="M21.3921 17.3097C21.4046 17.2401 21.5324 17.0329 21.6009 16.9905L71.8478 16.8704L72.4954 17.0291L72.6542 17.6767V67.3309C72.516 69.7892 70.6542 71.8234 68.2438 72.2285L17.1047 72.2334C14.6224 72.0621 12.7084 70.1149 12.3452 67.6849L12.3963 50.2631C12.4654 50.1876 12.7318 49.8885 12.7661 49.8885H21.3916L21.3921 17.3097ZM71.1594 18.3646H22.8815V67.5734C22.8815 67.8181 22.5003 69.0089 22.3692 69.2955C22.13 69.8196 21.7113 70.2672 21.3921 70.7386H68.2433C69.2557 70.7386 71.1599 68.7082 71.1599 67.6979L71.1594 18.3646ZM21.3921 51.3773H13.8215V67.5734C13.8215 69.4939 16.2216 70.8805 17.9839 70.7424C19.6108 70.6152 21.3921 68.9931 21.3921 67.3255V51.3773Z" fill="#114FAA"/>
<path d="M26.1003 21.3372H67.9403V27.3081H26.1003V21.3372ZM66.4433 22.8325H27.5973V25.8111H66.4433V22.8325Z" fill="#114FAA"/>
<path d="M26.1003 32.1328H47.7111V52.6251H26.1003V32.1328ZM46.3376 33.6298H27.5973V51.1293H46.3376V33.6298Z" fill="#114FAA"/>
<path d="M67.936 62.5405H26.0972V64.0429H67.936V62.5405Z" fill="#114FAA"/>
<path d="M67.9425 58.6941H26.0955V60.197H67.9425V58.6941Z" fill="#114FAA"/>
<path d="M67.9353 54.8943L26.0959 54.9724L26.0989 56.5466L67.9382 56.4684L67.9353 54.8943Z" fill="#114FAA"/>
<path d="M50.4653 41.0445C49.8998 40.5056 50.2945 39.7754 51.1107 39.7063C56.2285 39.274 61.9471 40.0424 67.129 39.7085C67.9942 39.7542 68.2584 40.6378 67.5575 41.1358L51.1107 41.206C50.909 41.1913 50.6154 41.1875 50.4653 41.0445Z" fill="#114FAA"/>
<path d="M50.7709 32.1677L67.2568 32.134C68.2764 32.2645 68.0953 33.6152 67.1285 33.6321L50.9856 33.6359C50.1711 33.569 49.902 32.3608 50.7709 32.1677Z" fill="#114FAA"/>
<path d="M51.0215 35.8935L67.0045 35.8608C68.3394 36.0642 68.1997 37.4323 66.8653 37.4654C66.625 37.4714 66.3923 37.3469 66.1378 37.3475C61.0456 37.348 55.9539 37.3545 50.8617 37.3589C49.9172 37.2316 50.083 35.9609 51.0215 35.8935Z" fill="#114FAA"/>
<path d="M50.7709 43.586L67.2568 43.5522C68.2764 43.6827 68.0953 45.0334 67.1285 45.0503L50.9856 45.0541C50.1711 44.9872 49.902 43.779 50.7709 43.586Z" fill="#114FAA"/>
<path d="M50.4654 52.462C49.9542 51.9754 50.3452 50.9847 51.1108 51.1239L67.6316 51.244C68.134 51.7117 67.9671 52.5452 67.2564 52.6246L51.1108 52.6235C50.9091 52.6088 50.6154 52.605 50.4654 52.462Z" fill="#114FAA"/>
<path d="M50.895 47.3085L67.0019 47.2819C68.0677 47.2144 68.3303 48.6396 67.2569 48.7772L50.4871 48.6565C49.9798 48.2198 50.2898 47.4423 50.895 47.3085Z" fill="#114FAA"/>
</svg>
